<?xml version="1.0" encoding="UTF-8"?>
<svg xmlns="http://www.w3.org/2000/svg" version="1.1" viewBox="0 0 30 30">
  <defs>
    <style>
      .cls-1 {
        fill: #f37e41;
      }

      .cls-2 {
        fill: none;
        stroke: #fff;
        stroke-linecap: round;
        stroke-linejoin: round;
        stroke-width: .91px;
      }
    </style>
  </defs>
  <!-- Generator: Adobe Illustrator 28.6.0, SVG Export Plug-In . SVG Version: 1.2.0 Build 709)  -->
  <g>
    <g id="Ebene_1">
      <g>
        <circle class="cls-1" cx="15" cy="15" r="15"/>
        <g>
          <path class="cls-2" d="M9.42,12.81c-.15-.07-.31-.14-.47-.21-1.1-.5-2.33-.44-3.03.67-.08.13-.16.27-.22.42-.12.27-.18.56-.17.85.02.53.2,1.36,1.05,2.06,0,0,4.26,3.76,12.07,2.11.8-.2,1.59-.5,2.35-.84,1.25-.57,2.97-1.39,3.23-2.91.22-1.28-.5-2.33-1.74-2.67-.02,0-.03,0-.05-.01-.91-.27-1.67.33-2.43.73-.5.26-1.04.44-1.57.6-1.47.43-3.02.57-4.54.45-1.62-.13-3.04-.61-4.48-1.24Z"/>
          <path class="cls-2" d="M10.3,13.45s-.04,1.6-1.48,2.16"/>
          <path class="cls-2" d="M12.97,14.1s-.04,1.6-1.48,2.16"/>
          <path class="cls-2" d="M15.45,14.1s.24,1.58-1.09,2.38"/>
          <path class="cls-2" d="M18.2,13.69s.17,1.85-1.2,2.65"/>
          <path class="cls-2" d="M20.63,12.84s.57,1.85-.6,2.93"/>
          <path class="cls-2" d="M23.26,12.41l.78-1.38c.09-.15.28-.2.43-.11.58.36,1.85,1.31,1.66,2.74-.02.13-.11.23-.23.26l-1.47.35"/>
          <path class="cls-2" d="M6.74,12.41l-.78-1.38c-.09-.15-.28-.2-.43-.11-.58.36-1.85,1.31-1.66,2.74.02.13.11.23.23.26l1.47.35"/>
        </g>
      </g>
    </g>
  </g>
</svg>