<?xml version="1.0" encoding="UTF-8"?>
<svg id="Ebene_1" xmlns="http://www.w3.org/2000/svg" version="1.1" viewBox="0 0 50 50">
  <!-- Generator: Adobe Illustrator 29.0.0, SVG Export Plug-In . SVG Version: 2.1.0 Build 186)  -->
  <defs>
    <style>
      .st0 {
        fill: #ee791b;
      }

      .st1 {
        fill: #1d1d1b;
      }
    </style>
  </defs>
  <path class="st0" d="M27.2,12c9.7-1.6,15.9,6.3,15.9,6.3,5.4,5.5,2.9,17.8,2.9,17.8-1.9,9.4-9.8,12.9-9.8,12.9-7.1,2.2-11.4.4-11.4.4-2.2-1-4.4,0-4.4,0-.9.8-2.7.4-2.7.4-7.9-2.2-10.9-7.7-10.9-7.7-7.5-13.3,0-23.5,0-23.5,3.3-5.1,10.5-5,10.5-5l3.1-3.1v-6.1L27.1,0l4.3.8.7,4.5-2.7,1,1.3-1.8-.9-2.1h-2.7c0,0-3,3.1-3,3.1l.9,4.4,2.2,2Z"/>
  <path class="st1" d="M14.9,21.2c.1-.1.3-.1.4,0l5.8,6.5c.1.1,0,.2,0,.2h-5.3c-.2,0-.4,0-.5-.2l-3.4-3.1c-.1-.1-.1-.3,0-.4l3.1-3.1Z"/>
  <path class="st1" d="M29.1,27.9c-.2,0-.2,0-.1-.2l5.7-7.4c0-.1.3-.1.4,0l2.8,2.5c.1.1.1.3,0,.4l-2.8,3.9c0,.1-.3.2-.4.3l-5.6.6Z"/>
  <path class="st1" d="M25.1,28.8c0,0-.1,0-.2,0l-2,3.7c0,0,0,.2,0,.2h4.2c.1,0,.1,0,0-.2l-2.2-3.7Z"/>
  <path class="st1" d="M41,39.9c6.1-9.2,0-15.4,0-15.4,1.5,5.6-.5,10.9-.5,10.9,0,0,0-5.1-.5-4.6s-2.4,6.7-2.4,6.5-.9-3.8-1.1-2.9-2.4,5.1-2.3,4.9-1.4-3.7-1.9-3.6-2.2,4.8-2.3,4.5-1.5-3.7-1.7-3.4-1.1,4-1.4,4-1.7-4.4-1.8-4.3-1.5,4.1-1.9,4.1-2.7-4.2-3-3.9-.6,3.3-.6,3.3c0,0-2.9-4.1-3.3-4.4-.7-.6-1,3.9-1,3.9-2.6-1.9-4.5-6.4-4.5-6.4-.6,1.1-.5,5.3-.5,5.3-2.5-2.7-1.7-11-1.7-11,0,0-5,10,3.8,16.7,0,0,1.1-3.4.9-4.1s2.6,4.1,2.6,4.1c0,0,1.7-2.2,1.7-2.9s1.4,3.8,1.4,3.8c0,0,1.4-1.7,1.4-2.2s2.9,3.7,3.3,3.6,1.3-2.4,1.6-2.7,1.5,2.9,1.8,2.7,1.6-3.3,1.9-3.3,1,2.2,1.4,2.2,1.9-3.2,1.9-3.6.9,1.9.9,2.3,2.2-1.9,2.7-3.8c0,0,1.5,1.9,1.5,2.6s2.4-5.1,2.4-5.1c0,0,1,1,1.4,2.3Z"/>
</svg>