<?xml version="1.0" encoding="UTF-8"?><svg xmlns="http://www.w3.org/2000/svg" xmlns:xlink="http://www.w3.org/1999/xlink" viewBox="0 0 283.46 283.46"><defs><style>.uuid-b686ccb5-bdc9-402e-a600-f58d1502c0f8{fill:none;}.uuid-b686ccb5-bdc9-402e-a600-f58d1502c0f8,.uuid-1c8d0015-7301-4276-a84b-0ea580692e38,.uuid-42a34eeb-fda7-4ead-b622-625fa0ed8ec1{stroke-width:0px;}.uuid-1c8d0015-7301-4276-a84b-0ea580692e38{fill:#8e115f;}.uuid-6cad0ef4-5485-4554-b9d8-63673a2d99e9{clip-path:url(#uuid-0ee5470f-28a0-4b2a-a5a0-2fc765bf6e26);}.uuid-42a34eeb-fda7-4ead-b622-625fa0ed8ec1{fill:#fff;}</style><clipPath id="uuid-0ee5470f-28a0-4b2a-a5a0-2fc765bf6e26"><circle class="uuid-b686ccb5-bdc9-402e-a600-f58d1502c0f8" cx="141.73" cy="141.73" r="141.73"/></clipPath></defs><g id="uuid-f7960ec8-4a99-4e32-8731-9a53f523843d"><circle class="uuid-1c8d0015-7301-4276-a84b-0ea580692e38" cx="141.73" cy="141.73" r="141.73"/></g><g id="uuid-ccc596a2-a232-4697-a696-196e1ce0e823"><g class="uuid-6cad0ef4-5485-4554-b9d8-63673a2d99e9"><path class="uuid-42a34eeb-fda7-4ead-b622-625fa0ed8ec1" d="M175.51,54.14c35.6,13.99,58.61,47.76,58.61,86.02,0,4.48-.34,9.13-1.01,13.81-.38,2.62,1.45,5.06,4.07,5.43.23.03.46.05.69.05,2.35,0,4.4-1.72,4.74-4.12.73-5.13,1.11-10.23,1.11-15.17,0-42.23-25.39-79.5-64.69-94.95-2.47-.97-5.25.24-6.22,2.71-.97,2.47.24,5.25,2.71,6.22Z"/><path class="uuid-42a34eeb-fda7-4ead-b622-625fa0ed8ec1" d="M45.56,159.44c.23,0,.45-.01.68-.05,2.62-.37,4.45-2.81,4.07-5.43-.67-4.68-1-9.33-1-13.81,0-38.3,23.02-72.06,58.65-86.02,2.47-.97,3.68-3.75,2.72-6.22-.97-2.46-3.74-3.68-6.22-2.71-39.33,15.41-64.74,52.68-64.74,94.95,0,4.93.37,10.04,1.1,15.17.34,2.39,2.39,4.12,4.74,4.12Z"/><path class="uuid-42a34eeb-fda7-4ead-b622-625fa0ed8ec1" d="M100.63,74.83c-21.64,13.6-35.12,36.93-36.06,62.42-.1,2.65,1.97,4.87,4.62,4.97.06,0,.12,0,.18,0,2.57,0,4.7-2.03,4.79-4.62.82-22.31,12.63-42.74,31.58-54.65,2.24-1.41,2.92-4.37,1.51-6.62-1.41-2.23-4.36-2.9-6.62-1.51Z"/><path class="uuid-42a34eeb-fda7-4ead-b622-625fa0ed8ec1" d="M182.88,74.88c-2.24-1.39-5.2-.73-6.61,1.51-1.41,2.24-.73,5.21,1.51,6.62,18.92,11.89,30.71,32.29,31.53,54.6.1,2.59,2.22,4.62,4.79,4.62.06,0,.12,0,.18,0,2.65-.1,4.71-2.32,4.62-4.97-.94-25.47-14.41-48.79-36.02-62.36Z"/><path class="uuid-42a34eeb-fda7-4ead-b622-625fa0ed8ec1" d="M141.71,174.41c-3.12,0-6.14-.43-8.97-1.25-2.19,62.6-6.02,145.89-8.24,178.79-.29,4.34,3.16,8.01,7.51,8.01h19.39c4.35,0,7.81-3.67,7.51-8.01-2.22-32.9-6.05-116.19-8.24-178.79-2.83.82-5.85,1.25-8.97,1.25Z"/><path class="uuid-42a34eeb-fda7-4ead-b622-625fa0ed8ec1" d="M107.74,143.99c-29.31,17.75-72.44,49.37-68.85,55.56,3.55,6.14,52.53-15.35,82.57-31.85-7.48-5.47-12.67-13.96-13.72-23.7Z"/><path class="uuid-42a34eeb-fda7-4ead-b622-625fa0ed8ec1" d="M155.48,108.87c-.77-34.25-6.67-87.46-13.77-87.46s-12.95,53.11-13.72,87.41c4.22-1.87,8.83-2.88,13.72-2.88s9.55,1.05,13.77,2.92Z"/><path class="uuid-42a34eeb-fda7-4ead-b622-625fa0ed8ec1" d="M175.68,143.95c-1.06,9.74-6.19,18.23-13.67,23.75,30.03,16.5,78.97,38,82.57,31.85,3.55-6.19-39.58-37.8-68.89-55.6Z"/><circle class="uuid-42a34eeb-fda7-4ead-b622-625fa0ed8ec1" cx="141.72" cy="140.18" r="21.74" transform="translate(-20.62 24.51) rotate(-9.22)"/></g></g></svg>